<svg width="85" height="75" viewBox="0 0 85 75" fill="none" xmlns="http://www.w3.org/2000/svg">
<path d="M56.6999 49.9396C56.5194 50.1433 56.2981 50.8829 56.1977 51.586C56.0172 53.1517 55.6561 53.8941 54.6719 54.7581C53.7886 55.5209 52.6644 56.0231 51.0577 56.3638C50.415 56.5043 49.7529 56.6869 49.6119 56.7642C49.4714 56.8344 53.6071 58.8524 58.7875 61.2617L68.2039 65.6384L67.7825 66.5817C66.8192 68.67 67.4214 71.6215 69.1475 73.2877C70.392 74.4916 71.4964 74.9334 73.3637 74.9334C75.2714 74.9334 76.4153 74.4909 77.6203 73.2877C78.9053 72.0022 79.387 70.7983 79.387 68.9102C79.387 67.5651 79.2865 67.1437 78.8243 66.26C78.5434 65.6981 78.2013 65.1755 78.0812 65.0955C77.6597 64.8356 77.9203 64.5897 78.6438 64.5897C80.7923 64.5897 83.0811 62.9032 83.9042 60.6745C84.9888 57.763 83.7237 54.6317 80.8328 53.106C79.608 52.4458 76.7568 52.4458 75.5122 53.106C74.3881 53.7101 73.2433 54.8726 72.7418 55.9164L72.3597 56.7593L64.6902 53.1671C57.3827 49.7534 57.0008 49.5933 56.6998 49.9346L56.6999 49.9396ZM19.5563 53.172L11.9272 56.7452L11.5254 55.9023C11.0436 54.8782 9.89895 53.7136 8.77481 53.1116C7.53021 52.4514 4.67899 52.4514 3.4542 53.1116C2.12875 53.814 1.24548 54.6977 0.64337 55.9227C0.161517 56.8857 0.0807397 57.3078 0.0807397 58.6733C0.0807397 60.0184 0.181185 60.4399 0.622298 61.3031C1.62604 63.2109 3.73418 64.596 5.64186 64.596C6.36435 64.596 6.62586 64.8349 6.20448 65.1018C6.08367 65.179 5.7423 65.7058 5.46134 66.2664C4.71819 67.6515 4.67864 70.0207 5.34122 71.4459C6.58575 74.1762 9.75783 75.6014 12.6692 74.7585C14.1547 74.337 15.8009 72.8508 16.4641 71.3855C17.0871 69.9603 17.1068 67.8917 16.5062 66.5867L16.0848 65.6433L25.5011 61.2666C30.6807 58.8574 34.817 56.8288 34.6768 56.7691C34.5363 56.6918 33.8734 56.5092 33.2309 56.3687C31.6251 56.0245 30.5001 55.5258 29.6168 54.763C28.6328 53.899 28.2716 53.1566 28.0909 51.5909C27.791 49.1817 28.2932 49.0812 19.5587 53.177L19.5563 53.172ZM72.2798 21.2482C70.2723 21.6486 68.6261 22.9347 67.7823 24.8221C67.2 26.1265 67.2 28.4156 67.8034 29.6203L68.2248 30.5039L66.558 31.2667C64.9117 32.0295 64.8919 32.0492 64.7509 32.8724C64.6308 33.676 64.6708 33.7757 65.5138 34.6797C66.779 36.0248 67.1196 36.7876 67.1403 38.1932C67.1403 39.1562 67.0194 39.579 66.5776 40.3418C66.1154 41.1243 65.8345 42.3093 66.1154 42.3093C66.1576 42.3093 67.4202 41.7263 68.9263 41.0246C72.5602 39.2981 72.2789 39.3381 72.8414 40.3994C74.7087 43.9333 79.5072 44.6961 82.3576 41.9454C82.779 41.5451 83.382 40.7415 83.6624 40.1985C84.3857 38.8534 84.4253 36.4638 83.7628 35.0583C82.9018 33.1723 80.9941 31.7865 78.9058 31.5259L77.9021 31.4065L78.4036 30.6633C79.5277 28.9769 79.7488 26.989 79.0667 25.1213C78.284 23.0541 76.5973 21.6486 74.3885 21.2468C73.7262 21.1274 73.1836 21.0221 73.1836 21.0502C73.1625 21.0502 72.7621 21.1485 72.2804 21.2468L72.2798 21.2482ZM9.61869 21.3185C8.29331 21.5995 7.83225 21.8593 6.76747 22.8034C4.63959 24.7315 4.21814 28.0434 5.80418 30.5334L6.36681 31.417L5.38281 31.5364C1.58804 32 -0.861514 35.7727 0.283315 39.4062C0.765168 40.9122 2.19099 42.4982 3.63598 43.1409C6.50701 44.3856 9.98007 43.2112 11.4466 40.41C12.0092 39.3465 11.7275 39.3058 15.3617 41.0351C16.8678 41.7375 18.1322 42.3198 18.1726 42.3198C18.4535 42.3198 18.1726 41.1356 17.7111 40.3517C17.27 39.5889 17.1484 39.1674 17.1484 38.2037C17.1695 36.7982 17.5095 36.0354 18.7749 34.6903C19.6178 33.787 19.6582 33.6865 19.5378 32.883C19.3973 32.0597 19.377 32.0401 17.6904 31.2562C16.4054 30.6521 16.0441 30.4133 16.205 30.2328C16.3054 30.0923 16.566 29.4503 16.7465 28.7872C17.9911 24.4716 14.0561 20.3365 9.61882 21.3199L9.61869 21.3185ZM38.931 0.096597C30.1175 1.04063 23.9136 5.35764 21.6842 12.1029C20.2591 16.4199 20.339 21.1176 21.9856 30.9752C22.2665 32.6217 22.4267 34.188 22.3663 34.4486C22.3031 34.6874 21.7643 35.4327 21.1613 36.0951C19.7559 37.6207 19.6553 38.0625 20.358 39.4477C20.6797 40.0728 20.981 41.0934 21.0607 41.8766C21.2215 43.0412 21.3212 43.3018 21.9035 43.8237C22.2646 44.1679 23.4698 44.8274 24.5742 45.3093C28.0877 46.8349 28.7104 47.1566 29.4131 47.859C30.256 48.723 30.6181 49.5659 30.7987 51.0915C30.9792 52.497 31.2405 52.8384 32.5861 53.3399C34.615 54.0845 36.3817 54.2657 42.1435 54.2657C47.9062 54.2657 49.6729 54.0831 51.7001 53.3413C53.0453 52.8356 53.306 52.4984 53.4667 51.0529C53.7273 48.8045 54.7518 47.479 57.0001 46.4949C60.935 44.8085 61.7986 44.3673 62.3809 43.8244C62.9632 43.3046 63.0636 43.0419 63.2238 41.7769C63.3446 40.8532 63.6059 39.9892 63.9463 39.3676C64.6489 38.1026 64.5285 37.6207 63.1232 36.0951C62.5212 35.4348 61.9783 34.6699 61.8984 34.3882C61.8352 34.1283 62.0185 32.5409 62.3002 30.9155C63.0028 26.8795 63.6256 21.3585 63.6256 18.9893C63.6256 15.1141 62.8025 11.7215 61.176 8.91043C60.192 7.20428 57.4019 4.37357 55.7548 3.40916C52.9844 1.78308 49.4305 0.618487 45.8567 0.176671C44.152 -0.0200031 40.4974 -0.0621471 38.9311 0.0994071L38.931 0.096597ZM32.808 24.4505C34.9367 24.7736 36.0006 25.1937 37.1248 26.1974C38.47 27.4028 38.8716 28.6868 38.5707 30.7947C38.2096 33.3648 36.9648 35.3526 35.1577 36.2159C34.1944 36.6795 30.0986 36.9787 28.4119 36.7006C26.3442 36.3774 25.7018 35.536 25.7018 33.1871C25.6807 28.9305 27.6095 25.0153 29.9378 24.4934C31.0809 24.2335 31.1815 24.2335 32.808 24.4231V24.4505ZM55.1741 24.8158C57.222 25.8792 58.8484 30.2159 58.5474 33.8305C58.3472 36.4603 57.0018 37.082 52.1827 36.742C48.8695 36.5032 47.4847 35.6975 46.4208 33.3487C44.9956 30.237 45.4772 27.2047 47.6654 25.7198C49.6729 24.3536 53.4074 23.9125 55.1741 24.8158ZM43.1077 34.6334C44.6137 36.5811 46.641 40.7366 46.5206 41.6806C46.4574 42.2215 46.4405 42.2215 44.8941 42.2004C43.6091 42.2004 43.2075 42.081 42.7258 41.7368L42.1435 41.2943L41.5612 41.7368C41.0793 42.081 40.6778 42.1793 39.3928 42.2004C37.8868 42.2004 37.8266 42.2004 37.7663 41.7368C37.6659 41.0766 38.1878 39.7694 39.4728 37.3805C40.7578 35.012 41.6214 33.8867 42.1435 33.8867C42.3444 33.8867 42.7665 34.2309 43.1076 34.6298L43.1077 34.6334Z" fill="#F0F2F6"/>
</svg>
